<svg xmlns="http://www.w3.org/2000/svg" width="69" height="45" viewBox="0 0 69 45"><title>venue-icon</title><path d="M10.48,0A1.51,1.51,0,0,0,9,1.53a1.5,1.5,0,1,0,3,0A1.52,1.52,0,0,0,10.48,0Zm48,0A1.51,1.51,0,0,0,57,1.53a1.5,1.5,0,1,0,3,0A1.52,1.52,0,0,0,58.48,0ZM6.73,1.53a1.53,1.53,0,1,0,1.5,1.52A1.51,1.51,0,0,0,6.73,1.53Zm55.5,0a1.53,1.53,0,1,0,1.5,1.52A1.51,1.51,0,0,0,62.23,1.53Zm-27.73,1A95.32,95.32,0,0,0,10.38,5.22C4.14,6.93,0,9.37,0,12.2c1.55,7,3.51,14.44,5.25,21.53a.77.77,0,0,0,.4.5,68.13,68.13,0,0,0,18.23,6l.87,4.15a.77.77,0,0,0,.73.62H45a.78.78,0,0,0,.72-.62L46.62,40a74.14,74.14,0,0,0,17.46-5.77.78.78,0,0,0,.42-.52C65.83,27.11,67.81,18.9,69,12.2c0-2.83-4.14-5.27-10.38-7A95.32,95.32,0,0,0,34.5,2.48ZM3,3.05a1.53,1.53,0,1,0,1.5,1.53A1.51,1.51,0,0,0,3,3.05Zm63,0a1.53,1.53,0,1,0,1.5,1.53A1.51,1.51,0,0,0,66,3.05ZM34.5,3.6A92.5,92.5,0,0,1,57.7,6.22C63.58,7.83,67,10,67,12.2c0,1.31-1.16,2.57-3.3,3.72a36,36,0,0,0-12.17-5.36,83,83,0,0,0-17-1.5,81.35,81.35,0,0,0-17,1.81c-5,1.15-9.21,2.84-11.83,5.22C3.31,14.9,2,13.57,2,12.2c0-2.22,3.38-4.37,9.26-6A92.5,92.5,0,0,1,34.5,3.6Zm0,7A82.13,82.13,0,0,1,51.21,12,34.22,34.22,0,0,1,62,16.68,34.61,34.61,0,0,1,58.24,18c-5-3-14.35-4.27-23.74-4.27S15.78,15,10.76,18a36.46,36.46,0,0,1-3.59-1.22c2.35-1.87,6.11-3.39,10.64-4.43A79.85,79.85,0,0,1,34.5,10.58Zm0,4.67c8.32,0,16.66,1.21,21.49,3.34A96.15,96.15,0,0,1,34.5,20.78,96.15,96.15,0,0,1,13,18.59C17.84,16.46,26.18,15.25,34.5,15.25Zm-7.24,13H43.2l2.46,2.29H24.77ZM24.89,32H45.56l-2,11.44H26.86Z" fill="#000"/></svg>