<svg xmlns="http://www.w3.org/2000/svg" width="45.22" height="45" viewBox="0 0 45.22 45"><title>bat-icon</title><path d="M36.83.09a2.84,2.84,0,0,0-1.42,0,4.13,4.13,0,0,0-1.55,1.06C26.26,8.75,18.67,16.39,11,24,10,25.05,10,25.75,11,26.79c2.36,2.41,4.77,4.77,7.15,7.2,1.42,1.41,1.91,1.41,3.37-.05,7.39-7.43,14.84-14.79,22.18-22.22a5.43,5.43,0,0,0,1.41-1.91,2.85,2.85,0,0,0,0-1.42A10.28,10.28,0,0,0,36.83.09Z" fill="#e41134"/><path d="M2.3,44.84a1.19,1.19,0,0,0,1.1,0,8.51,8.51,0,0,0,1.07-.8c2.57-2.45,5.11-4.83,7.64-7.33,1.2-1.21,2.4-2.17,4.08-2C14.33,32.92,12.46,31,10.6,29.1a4.27,4.27,0,0,1-1.2,3.28c-3,3-7.55,7.39-9.16,9.11A1.36,1.36,0,0,0,.15,42.9,4.29,4.29,0,0,0,2.3,44.84Z" fill="#e41134"/></svg>