<svg xmlns="http://www.w3.org/2000/svg" xmlns:xlink="http://www.w3.org/1999/xlink" width="357.61" height="110.68" viewBox="0 0 357.61 110.68"><defs><linearGradient id="a" x1="91.49" y1="94.07" x2="15.42" y2="32.68" gradientUnits="userSpaceOnUse"><stop offset="0" stop-color="#08115b"/><stop offset="1" stop-color="#08112a"/></linearGradient><radialGradient id="b" cx="-6.64" cy="14.98" r="75.37" gradientUnits="userSpaceOnUse"><stop offset="0" stop-color="#f0673b"/><stop offset="1" stop-color="#f0b13b"/></radialGradient><radialGradient id="c" cx="32.44" cy="81.54" r="34.34" xlink:href="#b"/></defs><title>full-logo</title><path d="M97.76,57.36c0,26.5-28.6,53.32-55.1,53.32S0,91,0,64.47,26.66,7.59,58.65,9.37C85.12,10.84,97.76,30.85,97.76,57.36Z" fill="url(#a)"/><polygon points="28.88 5.48 66.69 0 60.66 62.46 34.91 65.75 28.88 5.48" fill="url(#b)"/><path d="M62.85,85.47c0,8.17-8.81,16.44-17,16.44S32.72,95.84,32.72,87.67s8.21-17.54,18.08-17C59,71.13,62.85,77.3,62.85,85.47Z" fill="url(#c)"/><path d="M124.38,20H134V87.89h-9.62Z" fill="#fff"/><path d="M173,36.76v8.83c0,10.86-4.72,16.78-14.33,16.78h-4.55V87.89h-9.62V20h14.17C168.27,20,173,25.89,173,36.76Zm-18.88-7.08v23h4.55c3.05,0,4.72-1.55,4.72-6.4V36.08c0-4.85-1.67-6.4-4.72-6.4Z" fill="#fff"/><path d="M181,20h9.62v58.2h15.82v9.71H181Z" fill="#fff"/><path d="M213.37,33.79H221v54.1h-7.66Z" fill="#fff"/><path d="M251.61,67.71V74.9c0,8.66-3.9,13.6-11.42,13.6s-11.43-4.94-11.43-13.6V46.77c0-8.66,3.9-13.6,11.43-13.6s11.42,4.94,11.42,13.6V52h-7.24v-5.8c0-3.87-1.54-5.33-4-5.33s-4,1.46-4,5.33V75.44c0,3.87,1.53,5.26,4,5.26s4-1.39,4-5.26V67.71Z" fill="#fff"/><path d="M259.06,33.79h7.66v54.1h-7.66Z" fill="#fff"/><path d="M274.45,46.77c0-8.66,4.11-13.6,11.63-13.6s11.64,4.94,11.64,13.6V74.9c0,8.66-4.11,13.6-11.64,13.6s-11.63-4.94-11.63-13.6Zm7.66,28.67c0,3.87,1.54,5.34,4,5.34s4-1.47,4-5.34V46.23c0-3.87-1.53-5.33-4-5.33s-4,1.46-4,5.33Z" fill="#fff"/><path d="M312.76,33.79V75.52c0,3.86,1.53,5.26,4,5.26s4-1.4,4-5.26V33.79h7.24V75c0,8.66-3.9,13.6-11.42,13.6S305.1,83.64,305.1,75V33.79Z" fill="#fff"/><path d="M346.26,33.17c7.45,0,11.28,4.94,11.28,13.6v1.7H350.3V46.23c0-3.87-1.39-5.33-3.83-5.33s-3.83,1.46-3.83,5.33,1.53,6.88,6.55,11.75c6.4,6.26,8.42,10.74,8.42,16.92,0,8.66-3.9,13.6-11.42,13.6s-11.42-4.94-11.42-13.6V71.58H342v3.86c0,3.87,1.53,5.26,4,5.26s4-1.39,4-5.26-1.53-6.87-6.55-11.74C337,57.44,335,53,335,46.77,335,38.11,338.81,33.17,346.26,33.17Z" fill="#fff"/></svg>