<svg xmlns="http://www.w3.org/2000/svg" width="233.23" height="68.61" viewBox="0 0 233.23 68.61"><title>logo-name</title><path d="M0,0H9.62V67.91H0Z" fill="#fff"/><path d="M48.61,16.78v8.83c0,10.87-4.72,16.79-14.34,16.79H29.73V67.91H20.11V0H34.27C43.89,0,48.61,5.92,48.61,16.78ZM29.73,9.7v23h4.54c3.06,0,4.72-1.55,4.72-6.4V16.1c0-4.85-1.66-6.4-4.72-6.4Z" fill="#fff"/><path d="M56.57,0h9.61V58.21H82v9.7H56.57Z" fill="#fff"/><path d="M89,13.81h7.66v54.1H89Z" fill="#fff"/><path d="M127.23,47.74v7.19c0,8.65-3.9,13.6-11.43,13.6s-11.42-5-11.42-13.6V26.79c0-8.65,3.9-13.6,11.42-13.6s11.43,5,11.43,13.6v5.26H120v-5.8c0-3.86-1.53-5.33-4-5.33s-4,1.47-4,5.33V55.47c0,3.86,1.54,5.25,4,5.25s4-1.39,4-5.25V47.74Z" fill="#fff"/><path d="M134.68,13.81h7.66v54.1h-7.66Z" fill="#fff"/><path d="M150.07,26.79c0-8.65,4.11-13.6,11.63-13.6s11.63,5,11.63,13.6V54.93c0,8.65-4.11,13.6-11.63,13.6s-11.63-5-11.63-13.6Zm7.66,28.68c0,3.86,1.53,5.33,4,5.33s4-1.47,4-5.33V26.25c0-3.86-1.53-5.33-4-5.33s-4,1.47-4,5.33Z" fill="#fff"/><path d="M188.38,13.81V55.54c0,3.87,1.53,5.26,4,5.26s4-1.39,4-5.26V13.81h7.24V55c0,8.66-3.9,13.61-11.42,13.61s-11.43-5-11.43-13.61V13.81Z" fill="#fff"/><path d="M221.88,13.19c7.45,0,11.28,5,11.28,13.6V28.5h-7.24V26.25c0-3.86-1.4-5.33-3.83-5.33s-3.83,1.47-3.83,5.33,1.53,6.88,6.54,11.75c6.41,6.26,8.43,10.74,8.43,16.93,0,8.65-3.9,13.6-11.42,13.6s-11.43-5-11.43-13.6V51.6h7.25v3.87c0,3.86,1.53,5.25,4,5.25s4-1.39,4-5.25S224,48.59,219,43.72c-6.41-6.26-8.43-10.74-8.43-16.93C210.59,18.14,214.42,13.19,221.88,13.19Z" fill="#fff"/></svg>