<svg xmlns="http://www.w3.org/2000/svg" xmlns:xlink="http://www.w3.org/1999/xlink" width="97.76" height="110.68" viewBox="0 0 97.76 110.68"><defs><linearGradient id="a" x1="91.49" y1="94.07" x2="15.42" y2="32.68" gradientUnits="userSpaceOnUse"><stop offset="0" stop-color="#08115b"/><stop offset="1" stop-color="#08112a"/></linearGradient><radialGradient id="b" cx="-6.64" cy="14.98" r="75.37" gradientUnits="userSpaceOnUse"><stop offset="0" stop-color="#f0673b"/><stop offset="1" stop-color="#f0b13b"/></radialGradient><radialGradient id="c" cx="32.44" cy="81.54" r="34.34" xlink:href="#b"/></defs><title>logo</title><path d="M97.76,57.36c0,26.5-28.6,53.32-55.1,53.32S0,91,0,64.47,26.66,7.59,58.65,9.37C85.12,10.84,97.76,30.85,97.76,57.36Z" fill="url(#a)"/><polygon points="28.88 5.48 66.69 0 60.66 62.46 34.91 65.75 28.88 5.48" fill="url(#b)"/><path d="M62.85,85.47c0,8.17-8.81,16.44-17,16.44S32.72,95.84,32.72,87.67s8.21-17.54,18.08-17C59,71.13,62.85,77.3,62.85,85.47Z" fill="url(#c)"/></svg>